<svg width="1440" height="481" viewBox="0 0 1440 481" fill="none" xmlns="http://www.w3.org/2000/svg">
<g clip-path="url(#clip0_1789_13158)">
<g filter="url(#filter0_f_1789_13158)">
<rect width="1443.03" height="402.588" fill="url(#paint0_radial_1789_13158)"/>
</g>
<rect width="68.7158" height="68.7158" stroke="#D1CCCC" stroke-opacity="0.06" stroke-width="1.37432"/>
<rect x="68.7148" y="-1.33514e-05" width="68.7158" height="68.7158" stroke="#D1CCCC" stroke-opacity="0.06" stroke-width="1.37432"/>
<rect x="137.432" y="-1.33514e-05" width="68.7158" height="68.7158" stroke="#D1CCCC" stroke-opacity="0.06" stroke-width="1.37432"/>
<rect x="206.146" y="-1.33514e-05" width="68.7158" height="68.7158" stroke="#D1CCCC" stroke-opacity="0.06" stroke-width="1.37432"/>
<rect x="274.863" y="-1.33514e-05" width="68.7158" height="68.7158" stroke="#D1CCCC" stroke-opacity="0.06" stroke-width="1.37432"/>
<rect x="343.578" y="-1.33514e-05" width="68.7158" height="68.7158" stroke="#D1CCCC" stroke-opacity="0.06" stroke-width="1.37432"/>
<rect x="412.295" y="-1.33514e-05" width="68.7158" height="68.7158" stroke="#D1CCCC" stroke-opacity="0.06" stroke-width="1.37432"/>
<rect x="481.01" y="-1.33514e-05" width="68.7158" height="68.7158" stroke="#D1CCCC" stroke-opacity="0.06" stroke-width="1.37432"/>
<rect x="549.727" y="-1.33514e-05" width="68.7158" height="68.7158" stroke="#D1CCCC" stroke-opacity="0.06" stroke-width="1.37432"/>
<rect x="618.441" y="-1.33514e-05" width="68.7158" height="68.7158" stroke="#D1CCCC" stroke-opacity="0.06" stroke-width="1.37432"/>
<rect x="687.158" y="-1.33514e-05" width="68.7158" height="68.7158" stroke="#D1CCCC" stroke-opacity="0.06" stroke-width="1.37432"/>
<rect x="755.873" y="-1.33514e-05" width="68.7158" height="68.7158" stroke="#D1CCCC" stroke-opacity="0.06" stroke-width="1.37432"/>
<rect x="824.59" y="-1.33514e-05" width="68.7158" height="68.7158" stroke="#D1CCCC" stroke-opacity="0.06" stroke-width="1.37432"/>
<rect x="893.305" y="-1.33514e-05" width="68.7158" height="68.7158" stroke="#D1CCCC" stroke-opacity="0.06" stroke-width="1.37432"/>
<rect x="962.021" y="-1.33514e-05" width="68.7158" height="68.7158" stroke="#D1CCCC" stroke-opacity="0.06" stroke-width="1.37432"/>
<rect x="1030.74" y="-1.33514e-05" width="68.7158" height="68.7158" stroke="#D1CCCC" stroke-opacity="0.06" stroke-width="1.37432"/>
<rect x="1099.45" y="-1.33514e-05" width="68.7158" height="68.7158" stroke="#D1CCCC" stroke-opacity="0.06" stroke-width="1.37432"/>
<rect x="1168.17" y="-1.33514e-05" width="68.7158" height="68.7158" stroke="#D1CCCC" stroke-opacity="0.06" stroke-width="1.37432"/>
<rect x="1236.88" y="-1.33514e-05" width="68.7158" height="68.7158" stroke="#D1CCCC" stroke-opacity="0.06" stroke-width="1.37432"/>
<rect x="1305.6" y="-1.33514e-05" width="68.7158" height="68.7158" stroke="#D1CCCC" stroke-opacity="0.06" stroke-width="1.37432"/>
<rect x="1374.32" y="-1.33514e-05" width="68.7158" height="68.7158" stroke="#D1CCCC" stroke-opacity="0.06" stroke-width="1.37432"/>
<rect y="68.7168" width="68.7158" height="68.7158" stroke="#D1CCCC" stroke-opacity="0.06" stroke-width="1.37432"/>
<rect x="68.7148" y="68.7169" width="68.7158" height="68.7158" stroke="#D1CCCC" stroke-opacity="0.06" stroke-width="1.37432"/>
<rect x="137.432" y="68.7169" width="68.7158" height="68.7158" fill="#E3E3E3" fill-opacity="0.04" stroke="#D1CCCC" stroke-opacity="0.06" stroke-width="1.37432"/>
<rect x="206.146" y="68.7169" width="68.7158" height="68.7158" stroke="#D1CCCC" stroke-opacity="0.06" stroke-width="1.37432"/>
<rect x="274.863" y="68.7169" width="68.7158" height="68.7158" stroke="#D1CCCC" stroke-opacity="0.06" stroke-width="1.37432"/>
<rect x="343.578" y="68.7169" width="68.7158" height="68.7158" stroke="#D1CCCC" stroke-opacity="0.06" stroke-width="1.37432"/>
<rect x="412.295" y="68.7169" width="68.7158" height="68.7158" stroke="#D1CCCC" stroke-opacity="0.06" stroke-width="1.37432"/>
<rect x="481.01" y="68.7169" width="68.7158" height="68.7158" stroke="#D1CCCC" stroke-opacity="0.06" stroke-width="1.37432"/>
<rect x="549.727" y="68.7169" width="68.7158" height="68.7158" stroke="#D1CCCC" stroke-opacity="0.06" stroke-width="1.37432"/>
<rect x="618.441" y="68.7169" width="68.7158" height="68.7158" fill="#E3E3E3" fill-opacity="0.04" stroke="#D1CCCC" stroke-opacity="0.06" stroke-width="1.37432"/>
<rect x="687.158" y="68.7169" width="68.7158" height="68.7158" stroke="#D1CCCC" stroke-opacity="0.06" stroke-width="1.37432"/>
<rect x="755.873" y="68.7169" width="68.7158" height="68.7158" stroke="#D1CCCC" stroke-opacity="0.06" stroke-width="1.37432"/>
<rect x="824.59" y="68.7169" width="68.7158" height="68.7158" stroke="#D1CCCC" stroke-opacity="0.06" stroke-width="1.37432"/>
<rect x="893.305" y="68.7169" width="68.7158" height="68.7158" stroke="#D1CCCC" stroke-opacity="0.06" stroke-width="1.37432"/>
<rect x="962.021" y="68.7169" width="68.7158" height="68.7158" stroke="#D1CCCC" stroke-opacity="0.06" stroke-width="1.37432"/>
<rect x="1030.74" y="68.7169" width="68.7158" height="68.7158" stroke="#D1CCCC" stroke-opacity="0.06" stroke-width="1.37432"/>
<rect x="1099.45" y="68.7169" width="68.7158" height="68.7158" stroke="#D1CCCC" stroke-opacity="0.06" stroke-width="1.37432"/>
<rect x="1168.17" y="68.7169" width="68.7158" height="68.7158" stroke="#D1CCCC" stroke-opacity="0.06" stroke-width="1.37432"/>
<rect x="1236.88" y="68.7169" width="68.7158" height="68.7158" stroke="#D1CCCC" stroke-opacity="0.06" stroke-width="1.37432"/>
<rect x="1305.6" y="68.7169" width="68.7158" height="68.7158" stroke="#D1CCCC" stroke-opacity="0.06" stroke-width="1.37432"/>
<rect x="1374.32" y="68.7169" width="68.7158" height="68.7158" stroke="#D1CCCC" stroke-opacity="0.06" stroke-width="1.37432"/>
<rect y="137.432" width="68.7158" height="68.7158" stroke="#D1CCCC" stroke-opacity="0.06" stroke-width="1.37432"/>
<rect x="68.7148" y="137.432" width="68.7158" height="68.7158" stroke="#D1CCCC" stroke-opacity="0.06" stroke-width="1.37432"/>
<rect x="137.432" y="137.432" width="68.7158" height="68.7158" stroke="#D1CCCC" stroke-opacity="0.06" stroke-width="1.37432"/>
<rect x="206.146" y="137.432" width="68.7158" height="68.7158" stroke="#D1CCCC" stroke-opacity="0.06" stroke-width="1.37432"/>
<rect x="274.863" y="137.432" width="68.7158" height="68.7158" stroke="#D1CCCC" stroke-opacity="0.06" stroke-width="1.37432"/>
<rect x="343.578" y="137.432" width="68.7158" height="68.7158" stroke="#D1CCCC" stroke-opacity="0.06" stroke-width="1.37432"/>
<rect x="412.295" y="137.432" width="68.7158" height="68.7158" stroke="#D1CCCC" stroke-opacity="0.06" stroke-width="1.37432"/>
<rect x="481.01" y="137.432" width="68.7158" height="68.7158" stroke="#D1CCCC" stroke-opacity="0.06" stroke-width="1.37432"/>
<rect x="549.727" y="137.432" width="68.7158" height="68.7158" stroke="#D1CCCC" stroke-opacity="0.06" stroke-width="1.37432"/>
<rect x="618.441" y="137.432" width="68.7158" height="68.7158" stroke="#D1CCCC" stroke-opacity="0.06" stroke-width="1.37432"/>
<rect x="687.158" y="137.432" width="68.7158" height="68.7158" stroke="#D1CCCC" stroke-opacity="0.06" stroke-width="1.37432"/>
<rect x="755.873" y="137.432" width="68.7158" height="68.7158" stroke="#D1CCCC" stroke-opacity="0.06" stroke-width="1.37432"/>
<rect x="824.59" y="137.432" width="68.7158" height="68.7158" stroke="#D1CCCC" stroke-opacity="0.06" stroke-width="1.37432"/>
<rect x="893.305" y="137.432" width="68.7158" height="68.7158" stroke="#D1CCCC" stroke-opacity="0.06" stroke-width="1.37432"/>
<rect x="962.021" y="137.432" width="68.7158" height="68.7158" stroke="#D1CCCC" stroke-opacity="0.06" stroke-width="1.37432"/>
<rect x="1030.74" y="137.432" width="68.7158" height="68.7158" stroke="#D1CCCC" stroke-opacity="0.06" stroke-width="1.37432"/>
<rect x="1099.45" y="137.432" width="68.7158" height="68.7158" fill="#E3E3E3" fill-opacity="0.04" stroke="#D1CCCC" stroke-opacity="0.06" stroke-width="1.37432"/>
<rect x="1168.17" y="137.432" width="68.7158" height="68.7158" stroke="#D1CCCC" stroke-opacity="0.06" stroke-width="1.37432"/>
<rect x="1236.88" y="137.432" width="68.7158" height="68.7158" stroke="#D1CCCC" stroke-opacity="0.06" stroke-width="1.37432"/>
<rect x="1305.6" y="137.432" width="68.7158" height="68.7158" stroke="#D1CCCC" stroke-opacity="0.06" stroke-width="1.37432"/>
<rect x="1374.32" y="137.432" width="68.7158" height="68.7158" stroke="#D1CCCC" stroke-opacity="0.06" stroke-width="1.37432"/>
<rect y="206.146" width="68.7158" height="68.7158" stroke="#D1CCCC" stroke-opacity="0.06" stroke-width="1.37432"/>
<rect x="68.7148" y="206.146" width="68.7158" height="68.7158" stroke="#D1CCCC" stroke-opacity="0.06" stroke-width="1.37432"/>
<rect x="137.432" y="206.146" width="68.7158" height="68.7158" stroke="#D1CCCC" stroke-opacity="0.06" stroke-width="1.37432"/>
<rect x="206.146" y="206.146" width="68.7158" height="68.7158" stroke="#D1CCCC" stroke-opacity="0.06" stroke-width="1.37432"/>
<rect x="274.863" y="206.146" width="68.7158" height="68.7158" stroke="#D1CCCC" stroke-opacity="0.06" stroke-width="1.37432"/>
<rect x="343.578" y="206.146" width="68.7158" height="68.7158" stroke="#D1CCCC" stroke-opacity="0.06" stroke-width="1.37432"/>
<rect x="412.295" y="206.146" width="68.7158" height="68.7158" stroke="#D1CCCC" stroke-opacity="0.06" stroke-width="1.37432"/>
<rect x="481.01" y="206.146" width="68.7158" height="68.7158" stroke="#D1CCCC" stroke-opacity="0.06" stroke-width="1.37432"/>
<rect x="549.727" y="206.146" width="68.7158" height="68.7158" stroke="#D1CCCC" stroke-opacity="0.06" stroke-width="1.37432"/>
<rect x="618.441" y="206.146" width="68.7158" height="68.7158" stroke="#D1CCCC" stroke-opacity="0.06" stroke-width="1.37432"/>
<rect x="687.158" y="206.146" width="68.7158" height="68.7158" stroke="#D1CCCC" stroke-opacity="0.06" stroke-width="1.37432"/>
<rect x="755.873" y="206.146" width="68.7158" height="68.7158" stroke="#D1CCCC" stroke-opacity="0.06" stroke-width="1.37432"/>
<rect x="824.59" y="206.146" width="68.7158" height="68.7158" stroke="#D1CCCC" stroke-opacity="0.06" stroke-width="1.37432"/>
<rect x="893.305" y="206.146" width="68.7158" height="68.7158" stroke="#D1CCCC" stroke-opacity="0.06" stroke-width="1.37432"/>
<rect x="962.021" y="206.146" width="68.7158" height="68.7158" stroke="#D1CCCC" stroke-opacity="0.06" stroke-width="1.37432"/>
<rect x="1030.74" y="206.146" width="68.7158" height="68.7158" stroke="#D1CCCC" stroke-opacity="0.06" stroke-width="1.37432"/>
<rect x="1099.45" y="206.146" width="68.7158" height="68.7158" stroke="#D1CCCC" stroke-opacity="0.06" stroke-width="1.37432"/>
<rect x="1168.17" y="206.146" width="68.7158" height="68.7158" stroke="#D1CCCC" stroke-opacity="0.06" stroke-width="1.37432"/>
<rect x="1236.88" y="206.146" width="68.7158" height="68.7158" stroke="#D1CCCC" stroke-opacity="0.06" stroke-width="1.37432"/>
<rect x="1305.6" y="206.146" width="68.7158" height="68.7158" stroke="#D1CCCC" stroke-opacity="0.06" stroke-width="1.37432"/>
<rect x="1374.32" y="206.146" width="68.7158" height="68.7158" stroke="#D1CCCC" stroke-opacity="0.06" stroke-width="1.37432"/>
<rect y="274.863" width="68.7158" height="68.7158" stroke="#D1CCCC" stroke-opacity="0.06" stroke-width="1.37432"/>
<rect x="68.7148" y="274.863" width="68.7158" height="68.7158" stroke="#D1CCCC" stroke-opacity="0.06" stroke-width="1.37432"/>
<rect x="137.432" y="274.863" width="68.7158" height="68.7158" stroke="#D1CCCC" stroke-opacity="0.06" stroke-width="1.37432"/>
<rect x="206.146" y="274.863" width="68.7158" height="68.7158" fill="#E3E3E3" fill-opacity="0.04" stroke="#D1CCCC" stroke-opacity="0.06" stroke-width="1.37432"/>
<rect x="274.863" y="274.863" width="68.7158" height="68.7158" stroke="#D1CCCC" stroke-opacity="0.06" stroke-width="1.37432"/>
<rect x="343.578" y="274.863" width="68.7158" height="68.7158" stroke="#D1CCCC" stroke-opacity="0.06" stroke-width="1.37432"/>
<rect x="412.295" y="274.863" width="68.7158" height="68.7158" stroke="#D1CCCC" stroke-opacity="0.06" stroke-width="1.37432"/>
<rect x="481.01" y="274.863" width="68.7158" height="68.7158" stroke="#D1CCCC" stroke-opacity="0.06" stroke-width="1.37432"/>
<rect x="549.727" y="274.863" width="68.7158" height="68.7158" stroke="#D1CCCC" stroke-opacity="0.06" stroke-width="1.37432"/>
<rect x="618.441" y="274.863" width="68.7158" height="68.7158" stroke="#D1CCCC" stroke-opacity="0.06" stroke-width="1.37432"/>
<rect x="687.158" y="274.863" width="68.7158" height="68.7158" stroke="#D1CCCC" stroke-opacity="0.06" stroke-width="1.37432"/>
<rect x="755.873" y="274.863" width="68.7158" height="68.7158" stroke="#D1CCCC" stroke-opacity="0.06" stroke-width="1.37432"/>
<rect x="824.59" y="274.863" width="68.7158" height="68.7158" fill="#E3E3E3" fill-opacity="0.04" stroke="#D1CCCC" stroke-opacity="0.06" stroke-width="1.37432"/>
<rect x="893.305" y="274.863" width="68.7158" height="68.7158" stroke="#D1CCCC" stroke-opacity="0.06" stroke-width="1.37432"/>
<rect x="962.021" y="274.863" width="68.7158" height="68.7158" stroke="#D1CCCC" stroke-opacity="0.06" stroke-width="1.37432"/>
<rect x="1030.74" y="274.863" width="68.7158" height="68.7158" stroke="#D1CCCC" stroke-opacity="0.06" stroke-width="1.37432"/>
<rect x="1099.45" y="274.863" width="68.7158" height="68.7158" stroke="#D1CCCC" stroke-opacity="0.06" stroke-width="1.37432"/>
<rect x="1168.17" y="274.863" width="68.7158" height="68.7158" stroke="#D1CCCC" stroke-opacity="0.06" stroke-width="1.37432"/>
<rect x="1236.88" y="274.863" width="68.7158" height="68.7158" stroke="#D1CCCC" stroke-opacity="0.06" stroke-width="1.37432"/>
<rect x="1305.6" y="274.863" width="68.7158" height="68.7158" stroke="#D1CCCC" stroke-opacity="0.06" stroke-width="1.37432"/>
<rect x="1374.32" y="274.863" width="68.7158" height="68.7158" stroke="#D1CCCC" stroke-opacity="0.06" stroke-width="1.37432"/>
<rect y="343.58" width="68.7158" height="68.7158" stroke="#D1CCCC" stroke-opacity="0.06" stroke-width="1.37432"/>
<rect x="68.7148" y="343.58" width="68.7158" height="68.7158" stroke="#D1CCCC" stroke-opacity="0.06" stroke-width="1.37432"/>
<rect x="137.432" y="343.58" width="68.7158" height="68.7158" stroke="#D1CCCC" stroke-opacity="0.06" stroke-width="1.37432"/>
<rect x="206.146" y="343.58" width="68.7158" height="68.7158" stroke="#D1CCCC" stroke-opacity="0.06" stroke-width="1.37432"/>
<rect x="274.863" y="343.58" width="68.7158" height="68.7158" stroke="#D1CCCC" stroke-opacity="0.06" stroke-width="1.37432"/>
<rect x="343.578" y="343.58" width="68.7158" height="68.7158" stroke="#D1CCCC" stroke-opacity="0.06" stroke-width="1.37432"/>
<rect x="412.295" y="343.58" width="68.7158" height="68.7158" stroke="#D1CCCC" stroke-opacity="0.06" stroke-width="1.37432"/>
<rect x="481.01" y="343.58" width="68.7158" height="68.7158" stroke="#D1CCCC" stroke-opacity="0.06" stroke-width="1.37432"/>
<rect x="549.727" y="343.58" width="68.7158" height="68.7158" stroke="#D1CCCC" stroke-opacity="0.06" stroke-width="1.37432"/>
<rect x="618.441" y="343.58" width="68.7158" height="68.7158" stroke="#D1CCCC" stroke-opacity="0.06" stroke-width="1.37432"/>
<rect x="687.158" y="343.58" width="68.7158" height="68.7158" stroke="#D1CCCC" stroke-opacity="0.06" stroke-width="1.37432"/>
<rect x="755.873" y="343.58" width="68.7158" height="68.7158" stroke="#D1CCCC" stroke-opacity="0.06" stroke-width="1.37432"/>
<rect x="824.59" y="343.58" width="68.7158" height="68.7158" stroke="#D1CCCC" stroke-opacity="0.06" stroke-width="1.37432"/>
<rect x="893.305" y="343.58" width="68.7158" height="68.7158" stroke="#D1CCCC" stroke-opacity="0.06" stroke-width="1.37432"/>
<rect x="962.021" y="343.58" width="68.7158" height="68.7158" stroke="#D1CCCC" stroke-opacity="0.06" stroke-width="1.37432"/>
<rect x="1030.74" y="343.58" width="68.7158" height="68.7158" stroke="#D1CCCC" stroke-opacity="0.06" stroke-width="1.37432"/>
<rect x="1099.45" y="343.58" width="68.7158" height="68.7158" stroke="#D1CCCC" stroke-opacity="0.06" stroke-width="1.37432"/>
<rect x="1168.17" y="343.58" width="68.7158" height="68.7158" stroke="#D1CCCC" stroke-opacity="0.06" stroke-width="1.37432"/>
<rect x="1236.88" y="343.58" width="68.7158" height="68.7158" fill="#E3E3E3" fill-opacity="0.04" stroke="#D1CCCC" stroke-opacity="0.06" stroke-width="1.37432"/>
<rect x="1305.6" y="343.58" width="68.7158" height="68.7158" stroke="#D1CCCC" stroke-opacity="0.06" stroke-width="1.37432"/>
<rect x="1374.32" y="343.58" width="68.7158" height="68.7158" stroke="#D1CCCC" stroke-opacity="0.06" stroke-width="1.37432"/>
<rect y="412.293" width="68.7158" height="68.7158" stroke="#D1CCCC" stroke-opacity="0.06" stroke-width="1.37432"/>
<rect x="68.7148" y="412.293" width="68.7158" height="68.7158" stroke="#D1CCCC" stroke-opacity="0.06" stroke-width="1.37432"/>
<rect x="137.432" y="412.293" width="68.7158" height="68.7158" stroke="#D1CCCC" stroke-opacity="0.06" stroke-width="1.37432"/>
<rect x="206.146" y="412.293" width="68.7158" height="68.7158" stroke="#D1CCCC" stroke-opacity="0.06" stroke-width="1.37432"/>
<rect x="274.863" y="412.293" width="68.7158" height="68.7158" stroke="#D1CCCC" stroke-opacity="0.06" stroke-width="1.37432"/>
<rect x="343.578" y="412.293" width="68.7158" height="68.7158" stroke="#D1CCCC" stroke-opacity="0.06" stroke-width="1.37432"/>
<rect x="412.295" y="412.293" width="68.7158" height="68.7158" stroke="#D1CCCC" stroke-opacity="0.06" stroke-width="1.37432"/>
<rect x="481.01" y="412.293" width="68.7158" height="68.7158" stroke="#D1CCCC" stroke-opacity="0.06" stroke-width="1.37432"/>
<rect x="549.727" y="412.293" width="68.7158" height="68.7158" stroke="#D1CCCC" stroke-opacity="0.06" stroke-width="1.37432"/>
<rect x="618.441" y="412.293" width="68.7158" height="68.7158" stroke="#D1CCCC" stroke-opacity="0.06" stroke-width="1.37432"/>
<rect x="687.158" y="412.293" width="68.7158" height="68.7158" stroke="#D1CCCC" stroke-opacity="0.06" stroke-width="1.37432"/>
<rect x="755.873" y="412.293" width="68.7158" height="68.7158" stroke="#D1CCCC" stroke-opacity="0.06" stroke-width="1.37432"/>
<rect x="824.59" y="412.293" width="68.7158" height="68.7158" stroke="#D1CCCC" stroke-opacity="0.06" stroke-width="1.37432"/>
<rect x="893.305" y="412.293" width="68.7158" height="68.7158" stroke="#D1CCCC" stroke-opacity="0.06" stroke-width="1.37432"/>
<rect x="962.021" y="412.293" width="68.7158" height="68.7158" stroke="#D1CCCC" stroke-opacity="0.06" stroke-width="1.37432"/>
<rect x="1030.74" y="412.293" width="68.7158" height="68.7158" stroke="#D1CCCC" stroke-opacity="0.06" stroke-width="1.37432"/>
<rect x="1099.45" y="412.293" width="68.7158" height="68.7158" stroke="#D1CCCC" stroke-opacity="0.06" stroke-width="1.37432"/>
<rect x="1168.17" y="412.293" width="68.7158" height="68.7158" stroke="#D1CCCC" stroke-opacity="0.06" stroke-width="1.37432"/>
<rect x="1236.88" y="412.293" width="68.7158" height="68.7158" stroke="#D1CCCC" stroke-opacity="0.06" stroke-width="1.37432"/>
<rect x="1305.6" y="412.293" width="68.7158" height="68.7158" stroke="#D1CCCC" stroke-opacity="0.06" stroke-width="1.37432"/>
<rect x="1374.32" y="412.293" width="68.7158" height="68.7158" stroke="#D1CCCC" stroke-opacity="0.06" stroke-width="1.37432"/>
<rect y="481.01" width="68.7158" height="68.7158" stroke="#D1CCCC" stroke-opacity="0.06" stroke-width="1.37432"/>
<rect x="68.7148" y="481.01" width="68.7158" height="68.7158" stroke="#D1CCCC" stroke-opacity="0.06" stroke-width="1.37432"/>
<rect x="137.432" y="481.01" width="68.7158" height="68.7158" stroke="#D1CCCC" stroke-opacity="0.06" stroke-width="1.37432"/>
<rect x="206.146" y="481.01" width="68.7158" height="68.7158" stroke="#D1CCCC" stroke-opacity="0.06" stroke-width="1.37432"/>
<rect x="274.863" y="481.01" width="68.7158" height="68.7158" stroke="#D1CCCC" stroke-opacity="0.06" stroke-width="1.37432"/>
<rect x="343.578" y="481.01" width="68.7158" height="68.7158" stroke="#D1CCCC" stroke-opacity="0.06" stroke-width="1.37432"/>
<rect x="412.295" y="481.01" width="68.7158" height="68.7158" stroke="#D1CCCC" stroke-opacity="0.06" stroke-width="1.37432"/>
<rect x="481.01" y="481.01" width="68.7158" height="68.7158" stroke="#D1CCCC" stroke-opacity="0.06" stroke-width="1.37432"/>
<rect x="549.727" y="481.01" width="68.7158" height="68.7158" fill="#E3E3E3" fill-opacity="0.04" stroke="#D1CCCC" stroke-opacity="0.06" stroke-width="1.37432"/>
<rect x="618.441" y="481.01" width="68.7158" height="68.7158" stroke="#D1CCCC" stroke-opacity="0.06" stroke-width="1.37432"/>
<rect x="687.158" y="481.01" width="68.7158" height="68.7158" stroke="#D1CCCC" stroke-opacity="0.06" stroke-width="1.37432"/>
<rect x="755.873" y="481.01" width="68.7158" height="68.7158" stroke="#D1CCCC" stroke-opacity="0.06" stroke-width="1.37432"/>
<rect x="824.59" y="481.01" width="68.7158" height="68.7158" stroke="#D1CCCC" stroke-opacity="0.06" stroke-width="1.37432"/>
<rect x="893.305" y="481.01" width="68.7158" height="68.7158" stroke="#D1CCCC" stroke-opacity="0.06" stroke-width="1.37432"/>
<rect x="962.021" y="481.01" width="68.7158" height="68.7158" stroke="#D1CCCC" stroke-opacity="0.06" stroke-width="1.37432"/>
<rect x="1030.74" y="481.01" width="68.7158" height="68.7158" stroke="#D1CCCC" stroke-opacity="0.06" stroke-width="1.37432"/>
<rect x="1099.45" y="481.01" width="68.7158" height="68.7158" stroke="#D1CCCC" stroke-opacity="0.06" stroke-width="1.37432"/>
<rect x="1168.17" y="481.01" width="68.7158" height="68.7158" stroke="#D1CCCC" stroke-opacity="0.06" stroke-width="1.37432"/>
<rect x="1236.88" y="481.01" width="68.7158" height="68.7158" stroke="#D1CCCC" stroke-opacity="0.06" stroke-width="1.37432"/>
<rect x="1305.6" y="481.01" width="68.7158" height="68.7158" stroke="#D1CCCC" stroke-opacity="0.06" stroke-width="1.37432"/>
<rect x="1374.32" y="481.01" width="68.7158" height="68.7158" stroke="#D1CCCC" stroke-opacity="0.06" stroke-width="1.37432"/>
<rect x="-309.257" y="-320.914" width="1978.97" height="1242.61" stroke="white" stroke-width="1.37432"/>
</g>
<defs>
<filter id="filter0_f_1789_13158" x="-412.295" y="-412.295" width="2267.62" height="1227.18" filterUnits="userSpaceOnUse" color-interpolation-filters="sRGB">
<feFlood flood-opacity="0" result="BackgroundImageFix"/>
<feBlend mode="normal" in="SourceGraphic" in2="BackgroundImageFix" result="shape"/>
<feGaussianBlur stdDeviation="206.147" result="effect1_foregroundBlur_1789_13158"/>
</filter>
<radialGradient id="paint0_radial_1789_13158" cx="0" cy="0" r="1" gradientUnits="userSpaceOnUse" gradientTransform="translate(721.516 201.294) rotate(90) scale(201.294 721.516)">
<stop offset="0.015625" stop-color="#E7F44D" stop-opacity="0.69"/>
<stop offset="0.223958" stop-color="#DDF44D" stop-opacity="0.34"/>
<stop offset="0.911458" stop-color="#F1F44D" stop-opacity="0"/>
</radialGradient>
<clipPath id="clip0_1789_13158">
<rect width="1440" height="481" fill="white"/>
</clipPath>
</defs>
</svg>
