<svg width="54" height="60" viewBox="0 0 54 60" fill="none" xmlns="http://www.w3.org/2000/svg">
<path d="M27.0671 20.0932C30.008 20.0932 32.3921 17.7092 32.3921 14.7683C32.3921 11.8274 30.008 9.44336 27.0671 9.44336C24.1262 9.44336 21.7422 11.8274 21.7422 14.7683C21.7422 17.7092 24.1262 20.0932 27.0671 20.0932Z" fill="#800020"/>
<path d="M30.1291 25.2385C30.1303 25.2373 30.1317 25.2364 30.1332 25.2358L44.6266 19.4891C46.4051 18.7848 47.7891 17.3338 48.4054 15.5201L53.3535 0.968073C53.4162 0.780055 53.3406 0.549761 53.1754 0.440235C53.0022 0.325391 52.757 0.333106 52.5928 0.499675L29.4582 23.9231C29.3033 24.0815 29.2188 24.2964 29.2223 24.5183V24.645C29.2363 25.102 29.6995 25.4081 30.125 25.2411C30.1266 25.2405 30.128 25.2396 30.1291 25.2385Z" fill="#4FB7FF"/>
<path d="M42.6827 44.1544C42.0558 42.5802 41.126 41.1468 39.8899 39.9917C37.3119 37.5863 30.9868 32.603 29.6415 31.2999C29.4584 31.1238 29.1484 31.2259 29.1203 31.4795C29.0322 32.1909 29.0815 32.9798 29.2893 33.6172L37.2662 50.3809C38.0691 51.8883 39.1926 53.2019 40.559 54.2267L46.5531 59.2347C46.8912 59.4953 47.3561 59.1431 47.1941 58.7487C46.0953 56.0721 44.0914 47.6903 42.6827 44.1544Z" fill="#4FB7FF"/>
<path d="M29.5555 28.8847C29.5567 28.8847 29.5578 28.8851 29.5587 28.8858L41.799 38.3372C42.4717 38.869 43.4261 38.2033 43.162 37.3898L40.1403 30.9907C39.8691 30.1525 40.0557 28.8812 40.6368 28.2191L46.1238 23.0667C46.7788 22.3659 46.0357 21.26 45.1377 21.6016L29.751 27.476C29.1423 27.6941 29.0292 28.5029 29.5524 28.8837C29.5533 28.8843 29.5544 28.8847 29.5555 28.8847Z" fill="#800020"/>
<path d="M11.1883 43.8966C11.189 43.898 11.191 43.8979 11.1916 43.8965C11.8501 42.3378 12.804 40.9233 14.0638 39.7902C16.6876 37.4341 23.1078 32.5741 24.4742 31.2957C24.6574 31.1231 24.9673 31.2323 24.9919 31.4823C25.0659 32.1972 25.0025 32.9826 24.7806 33.6165L16.4868 50.2253C15.6557 51.7185 14.5041 53.0075 13.12 54.0077L7.03083 58.8994C6.68921 59.153 6.22786 58.7902 6.3969 58.3993C7.54815 55.7448 9.70947 47.4063 11.1851 43.8966C11.1857 43.8952 11.1876 43.8952 11.1883 43.8966Z" fill="#4FB7FF"/>
<path d="M23.6498 25.2389L9.15416 19.4913C7.37566 18.7869 5.99159 17.336 5.37528 15.5222L0.427173 0.970222C0.364496 0.782191 0.439438 0.551778 0.60409 0.441443C0.777107 0.325502 1.02228 0.333802 1.18436 0.498303L24.319 23.9217C24.4739 24.0802 24.5585 24.295 24.5549 24.5169V24.6437C24.5408 25.1015 24.076 25.4079 23.6498 25.2389Z" fill="#4FB7FF"/>
<path d="M24.2273 28.8847C24.2261 28.8847 24.225 28.8851 24.2241 28.8858L11.9838 38.3372C11.3111 38.869 10.3567 38.2033 10.6208 37.3898L13.6425 30.9907C13.9137 30.1525 13.7271 28.8812 13.146 28.2191L7.65902 23.0667C7.00396 22.3659 7.74706 21.26 8.64512 21.6016L24.0318 27.476C24.6405 27.6941 24.7536 28.5029 24.2304 28.8837C24.2295 28.8843 24.2284 28.8847 24.2273 28.8847Z" fill="#800020"/>
</svg>
