<svg width="40" height="40" viewBox="0 0 40 40" fill="none" xmlns="http://www.w3.org/2000/svg">
<g id="ph:dots-six-vertical-bold">
<path id="Vector" d="M17.1166 9.92383C17.1166 10.4037 16.9743 10.8729 16.7077 11.2719C16.4411 11.6709 16.0621 11.9819 15.6187 12.1656C15.1753 12.3493 14.6875 12.3973 14.2168 12.3037C13.7461 12.2101 13.3137 11.979 12.9744 11.6396C12.635 11.3003 12.4039 10.8679 12.3103 10.3972C12.2167 9.92652 12.2647 9.43864 12.4484 8.99526C12.632 8.55188 12.943 8.17292 13.3421 7.9063C13.7411 7.63967 14.2102 7.49736 14.6901 7.49736C15.3337 7.49736 15.9509 7.75301 16.4059 8.20806C16.861 8.66311 17.1166 9.28029 17.1166 9.92383ZM25.6093 12.3503C26.0892 12.3503 26.5583 12.208 26.9573 11.9414C27.3564 11.6747 27.6674 11.2958 27.851 10.8524C28.0347 10.409 28.0827 9.92114 27.9891 9.45045C27.8955 8.97976 27.6644 8.54741 27.325 8.20806C26.9857 7.86871 26.5533 7.63761 26.0826 7.54399C25.612 7.45036 25.1241 7.49841 24.6807 7.68207C24.2373 7.86572 23.8583 8.17673 23.5917 8.57576C23.3251 8.97479 23.1828 9.44392 23.1828 9.92383C23.1828 10.5674 23.4384 11.1846 23.8935 11.6396C24.3485 12.0947 24.9657 12.3503 25.6093 12.3503ZM14.6901 17.8099C14.2102 17.8099 13.7411 17.9522 13.3421 18.2188C12.943 18.4854 12.632 18.8644 12.4484 19.3078C12.2647 19.7511 12.2167 20.239 12.3103 20.7097C12.4039 21.1804 12.635 21.6128 12.9744 21.9521C13.3137 22.2915 13.7461 22.5226 14.2168 22.6162C14.6875 22.7098 15.1753 22.6618 15.6187 22.4781C16.0621 22.2944 16.4411 21.9834 16.7077 21.5844C16.9743 21.1854 17.1166 20.7162 17.1166 20.2363C17.1166 19.5928 16.861 18.9756 16.4059 18.5206C15.9509 18.0655 15.3337 17.8099 14.6901 17.8099ZM25.6093 17.8099C25.1294 17.8099 24.6602 17.9522 24.2612 18.2188C23.8622 18.4854 23.5511 18.8644 23.3675 19.3078C23.1838 19.7511 23.1358 20.239 23.2294 20.7097C23.323 21.1804 23.5541 21.6128 23.8935 21.9521C24.2328 22.2915 24.6652 22.5226 25.1359 22.6162C25.6066 22.7098 26.0945 22.6618 26.5378 22.4781C26.9812 22.2944 27.3602 21.9834 27.6268 21.5844C27.8934 21.1854 28.0357 20.7162 28.0357 20.2363C28.0357 19.5928 27.7801 18.9756 27.325 18.5206C26.87 18.0655 26.2528 17.8099 25.6093 17.8099ZM14.6901 28.1224C14.2102 28.1224 13.7411 28.2647 13.3421 28.5313C12.943 28.7979 12.632 29.1769 12.4484 29.6203C12.2647 30.0636 12.2167 30.5515 12.3103 31.0222C12.4039 31.4929 12.635 31.9253 12.9744 32.2646C13.3137 32.604 13.7461 32.8351 14.2168 32.9287C14.6875 33.0223 15.1753 32.9743 15.6187 32.7906C16.0621 32.6069 16.4411 32.2959 16.7077 31.8969C16.9743 31.4979 17.1166 31.0287 17.1166 30.5488C17.1166 29.9053 16.861 29.2881 16.4059 28.8331C15.9509 28.378 15.3337 28.1224 14.6901 28.1224ZM25.6093 28.1224C25.1294 28.1224 24.6602 28.2647 24.2612 28.5313C23.8622 28.7979 23.5511 29.1769 23.3675 29.6203C23.1838 30.0636 23.1358 30.5515 23.2294 31.0222C23.323 31.4929 23.5541 31.9253 23.8935 32.2646C24.2328 32.604 24.6652 32.8351 25.1359 32.9287C25.6066 33.0223 26.0945 32.9743 26.5378 32.7906C26.9812 32.6069 27.3602 32.2959 27.6268 31.8969C27.8934 31.4979 28.0357 31.0287 28.0357 30.5488C28.0357 29.9053 27.7801 29.2881 27.325 28.8331C26.87 28.378 26.2528 28.1224 25.6093 28.1224Z" fill="#676E80"/>
</g>
</svg>
