<svg width="121" height="121" viewBox="0 0 121 121" fill="none" xmlns="http://www.w3.org/2000/svg">
<g clip-path="url(#clip0_1331_11852)">
<rect x="0.5" y="0.5" width="120" height="120" rx="60" fill="#FEE4E2"/>
<path d="M88.6932 32.3516C88.2792 31.9367 87.7874 31.6076 87.246 31.383C86.7047 31.1584 86.1243 31.0429 85.5382 31.0429C84.9521 31.0429 84.3718 31.1584 83.8304 31.383C83.289 31.6076 82.7973 31.9367 82.3833 32.3516L60.5 54.1901L38.6167 32.3068C38.2024 31.8925 37.7105 31.5639 37.1692 31.3396C36.6279 31.1154 36.0477 31 35.4618 31C34.8758 31 34.2957 31.1154 33.7543 31.3396C33.213 31.5639 32.7211 31.8925 32.3068 32.3068C31.8925 32.7211 31.5639 33.213 31.3396 33.7543C31.1154 34.2957 31 34.8758 31 35.4618C31 36.0477 31.1154 36.6279 31.3396 37.1692C31.5639 37.7105 31.8925 38.2024 32.3068 38.6167L54.1901 60.5L32.3068 82.3833C31.8925 82.7976 31.5639 83.2895 31.3396 83.8308C31.1154 84.3721 31 84.9523 31 85.5382C31 86.1242 31.1154 86.7043 31.3396 87.2457C31.5639 87.787 31.8925 88.2789 32.3068 88.6932C32.7211 89.1075 33.213 89.4361 33.7543 89.6604C34.2957 89.8846 34.8758 90 35.4618 90C36.0477 90 36.6279 89.8846 37.1692 89.6604C37.7105 89.4361 38.2024 89.1075 38.6167 88.6932L60.5 66.8099L82.3833 88.6932C82.7976 89.1075 83.2895 89.4361 83.8308 89.6604C84.3721 89.8846 84.9523 90 85.5382 90C86.1242 90 86.7043 89.8846 87.2457 89.6604C87.787 89.4361 88.2789 89.1075 88.6932 88.6932C89.1075 88.2789 89.4361 87.787 89.6604 87.2457C89.8846 86.7043 90 86.1242 90 85.5382C90 84.9523 89.8846 84.3721 89.6604 83.8308C89.4361 83.2895 89.1075 82.7976 88.6932 82.3833L66.8099 60.5L88.6932 38.6167C90.3937 36.9162 90.3937 34.0521 88.6932 32.3516Z" fill="#F24E1E"/>
</g>
<defs>
<clipPath id="clip0_1331_11852">
<rect x="0.5" y="0.5" width="120" height="120" rx="60" fill="white"/>
</clipPath>
</defs>
</svg>
