<svg width="72" height="38" viewBox="0 0 72 38" fill="none" xmlns="http://www.w3.org/2000/svg">
<path d="M71.9297 27.6587C68.9652 33.6224 62.8097 37.7216 55.6953 37.7216C45.7735 37.7216 37.7135 29.7442 37.5776 19.8544H44.708C44.7427 21.4685 45.1289 23.1599 45.9306 24.8566C46.8655 26.8303 48.4557 28.4338 50.4294 29.366C55.2771 31.6567 60.0609 30.5486 63.1719 27.6587H71.9297Z" fill="white"/>
<path d="M71.9301 10.9262H63.1723C61.2092 9.10428 58.5829 7.99091 55.6956 7.99091C49.8597 7.99091 45.0866 12.5403 44.727 18.2856H37.5913C37.6712 16.1414 38.124 13.9174 39.011 11.6746C40.697 7.40492 44.0824 4.00887 48.3468 2.31484C58.3512 -1.66188 67.9774 2.97807 71.9301 10.9288V10.9262Z" fill="white"/>
<path d="M29.8407 19.8517C29.7102 25.8075 24.8412 30.5939 18.8535 30.5939C12.8658 30.5939 7.99674 25.8075 7.86623 19.8517H0.73584C0.869018 29.7443 8.92899 37.7216 18.8508 37.7216C28.7726 37.7216 36.8352 29.7443 36.9684 19.8517H29.838H29.8407Z" fill="white"/>
<path d="M36.9155 18.2828H0.749512C1.19433 12.2205 3.87387 0.863068 18.8378 0.863068V0.889703L34.0069 12.8278C35.6876 14.149 36.7477 16.112 36.9128 18.2455V18.2828H36.9155Z" fill="white"/>
<path d="M18.8398 0.876542L19.7987 9.19488C19.8813 9.90072 20.2142 10.5267 20.707 10.9795C21.3196 11.5441 22.1693 11.7839 22.9977 11.6827C24.0897 11.5495 27.009 11.2245 29.3077 11.2245C32.1923 11.2245 33.0473 12.0769 33.0473 12.0769C33.0527 12.0769 33.0553 12.0715 33.0527 12.0689C32.5919 11.7013 19.2607 1.19617 18.8505 0.873878C18.8478 0.871215 18.8425 0.873878 18.8425 0.879205L18.8398 0.876542Z" fill="white"/>
</svg>
