<svg width="58" height="41" viewBox="0 0 58 41" fill="none" xmlns="http://www.w3.org/2000/svg">
<g clip-path="url(#clip0_422_28691)">
<path d="M9.29 20.0476H2.64905V26.2319H-0.00732422V11.1653H2.64905V17.3912H9.29V11.1653H11.9464V26.2319H9.29V20.0476Z" fill="black"/>
<path d="M21.4211 26.398C17.7063 26.398 15.0084 24.5302 14.2198 20.6909H17.0629C17.395 22.6417 19.076 23.7831 21.4211 23.7831C22.7493 23.7831 25.0736 23.4303 25.0736 21.9568C25.0736 21.0644 23.9737 20.5664 21.255 20.1513C16.4404 19.425 14.9046 18.1798 14.9046 15.5649C14.9046 13.1576 17.2912 10.9993 21.1098 10.9993C24.4302 10.9993 26.7338 12.7425 27.9167 16.2705H25.0943C24.4717 14.465 23.1228 13.6141 21.1098 13.6141C19.0345 13.6141 17.5403 14.4858 17.5403 15.5649C17.5403 16.5611 18.5364 17.0799 21.7531 17.5572C26.132 18.2836 27.6677 19.4457 27.6885 21.9568V21.9983C27.6885 24.6132 25.0113 26.398 21.4211 26.398Z" fill="black"/>
<path d="M37.299 26.4187C32.9201 26.4187 29.7034 23.202 29.7034 18.7194C29.7034 14.2367 32.9201 10.9993 37.299 10.9993C40.9515 10.9993 43.7739 13.2198 44.6456 16.5196H41.8439C41.076 14.7556 39.4158 13.6349 37.299 13.6349C34.3106 13.6349 32.3391 15.8555 32.3391 18.7194C32.3391 21.6663 34.3936 23.8038 37.299 23.8038C39.7271 23.8038 41.5949 22.3096 42.1137 20.0891H44.8116C44.2305 23.8453 41.2628 26.4187 37.299 26.4187Z" fill="black"/>
<path d="M58.063 13.7594H53.2068V26.2319H50.5504V13.7594H45.6735V11.1653H58.063V13.7594Z" fill="black"/>
<path d="M10.9282 31.2258H46.3074C42.4732 36.9088 35.9832 40.646 28.6178 40.646C21.2525 40.646 14.7581 36.9088 10.9282 31.2258Z" fill="#0A0A0A"/>
</g>
<defs>
<clipPath id="clip0_422_28691">
<rect width="57.345" height="40.0505" fill="white" transform="translate(-0.00732422 0.667603)"/>
</clipPath>
</defs>
</svg>
