<svg width="204" height="204" viewBox="0 0 204 204" fill="none" xmlns="http://www.w3.org/2000/svg">
<g id="Component 138">
<rect width="203.56" height="203.559" rx="101.78" fill="white"/>
<g id="Vector">
<path d="M64.5685 160.956C50.362 159.261 43.5101 148.719 35.8958 139.317C13.7554 111.979 21.9921 68.4212 53.0102 51.6067C62.5921 46.4125 73.6175 43.5994 84.1794 38.9262C85.4167 38.1563 86.4566 38.1563 88.2764 38.1563C83.0367 45.7818 77.3531 53.6772 70.8504 60.9145C67.7725 64.3402 63.1279 66.5072 57.3625 70.518C64.178 71.3535 68.4407 71.8761 75.6067 72.7545C70.164 78.458 66.1606 82.5012 62.3349 86.6895C48.8308 101.474 38.6562 117.125 49.0159 137.453C50.8237 141 53.5041 144.15 56.1024 148.9C59.1383 153.864 61.8534 157.41 64.5685 160.956Z" fill="#010065"/>
<path d="M85.4016 38.6139C97.1005 34.1887 104.774 36.2372 117.551 38.7087C154.7 45.8955 181.92 85.2579 171.973 118.311C168.9 128.521 162.948 137.794 158.757 148.226C158.436 149.622 157.672 150.289 156.335 151.456C154.36 142.129 152.505 132.306 151.755 122.472C151.4 117.818 153.252 93.021 154.425 86.1847C148.779 89.903 146.322 95.5508 140.386 99.4603C140.029 91.5066 145.454 81.959 145.066 76.228C143.695 55.9986 134.537 54.3553 124.325 50.2694C120.288 48.6538 104.126 42.3629 98.588 40.3127C92.5659 38.3768 85.4016 39.7202 85.4016 38.6139Z" fill="black"/>
<path d="M64.393 161.283C61.8529 157.41 59.1379 153.864 56.5452 149.563C64.0362 148.982 71.6256 148.181 78.709 149.615C85.3301 150.956 91.4143 154.667 98.5342 155.224C96.2705 151.808 94.0067 148.392 90.1049 142.505C97.0865 142.897 101.417 142.678 105.543 143.444C139.981 149.834 166.63 135.012 166.274 105.137C166.221 100.636 166.267 96.1348 167.143 91.7006C179.513 112.455 173.026 136.699 150.047 158.986C134.64 167.656 119.218 174.801 101.223 173.034C94.0679 172.331 87.0243 170.615 78.7075 168.209C72.8268 165.142 68.1688 163.227 63.5108 161.311C63.5108 161.311 64.2181 161.609 64.393 161.283Z" fill="#FF0000"/>
</g>
</g>
</svg>
