<svg width="40" height="40" viewBox="0 0 40 40" fill="none" xmlns="http://www.w3.org/2000/svg">
<g id="vuesax/outline/menu">
<g id="menu">
<path id="Vector" d="M34.7938 10.8104H5.67613C5.01289 10.8104 4.46289 10.2604 4.46289 9.59718C4.46289 8.93394 5.01289 8.38394 5.67613 8.38394H34.7938C35.457 8.38394 36.007 8.93394 36.007 9.59718C36.007 10.2604 35.457 10.8104 34.7938 10.8104Z" fill="#000B29"/>
<path id="Vector_2" d="M34.7938 18.0897H5.67613C5.01289 18.0897 4.46289 17.5397 4.46289 16.8765C4.46289 16.2132 5.01289 15.6632 5.67613 15.6632H34.7938C35.457 15.6632 36.007 16.2132 36.007 16.8765C36.007 17.5397 35.457 18.0897 34.7938 18.0897Z" fill="#000B29"/>
<path id="Vector_3" d="M34.7938 25.369H5.67613C5.01289 25.369 4.46289 24.819 4.46289 24.1558C4.46289 23.4925 5.01289 22.9425 5.67613 22.9425H34.7938C35.457 22.9425 36.007 23.4925 36.007 24.1558C36.007 24.819 35.457 25.369 34.7938 25.369Z" fill="#000B29"/>
<path id="Vector_4" d="M34.7938 32.6483H5.67613C5.01289 32.6483 4.46289 32.0983 4.46289 31.4351C4.46289 30.7718 5.01289 30.2218 5.67613 30.2218H34.7938C35.457 30.2218 36.007 30.7718 36.007 31.4351C36.007 32.0983 35.457 32.6483 34.7938 32.6483Z" fill="#000B29"/>
</g>
</g>
</svg>
