<svg width="49" height="40" viewBox="0 0 49 40" fill="none" xmlns="http://www.w3.org/2000/svg">
<path d="M47.2374 18.2337C45.2969 22.1373 41.2678 24.8205 36.611 24.8205C30.1166 24.8205 24.8409 19.5988 24.752 13.1254H29.4192C29.4419 14.1819 29.6947 15.289 30.2195 16.3996C30.8314 17.6915 31.8723 18.7411 33.1642 19.3513C36.3373 20.8507 39.4685 20.1254 41.5049 18.2337H47.2374Z" fill="white"/>
<path d="M47.237 7.28153H41.5045C40.2196 6.089 38.5005 5.36023 36.6106 5.36023C32.7907 5.36023 29.6664 8.33807 29.431 12.0987H24.7603C24.8126 10.6952 25.1089 9.23944 25.6895 7.77145C26.7931 4.97667 29.0091 2.75376 31.8004 1.64491C38.3488 -0.95808 44.6497 2.07904 47.237 7.28328V7.28153Z" fill="white"/>
<path d="M7.32604 32.6663L6.33227 32.6838L6.29565 30.4678L5.16589 32.703L4.69341 32.7117L3.48345 30.5027L3.52006 32.7308L2.52629 32.7483L2.45654 28.5901L3.46253 28.5727L4.90263 31.1861L6.25556 28.5256L7.25456 28.5082L7.3243 32.6663H7.32604Z" fill="white"/>
<path d="M11.1165 32.6039L10.8114 31.8525L9.06092 31.8821L8.78197 32.644L7.68359 32.6632L9.35208 28.4772L10.3999 28.4597L12.2061 32.5882L11.1147 32.6057L11.1165 32.6039ZM9.89953 29.6191L9.39567 30.993L10.4574 30.9755L9.90128 29.6191H9.89953Z" fill="white"/>
<path d="M16.5394 32.5133L15.6956 32.5272L13.5511 30.1544L13.5912 32.5621L12.5678 32.5795L12.498 28.4214L13.3489 28.4074L15.4951 30.8552L15.4532 28.3725L16.4714 28.3551L16.5411 32.5133H16.5394Z" fill="white"/>
<path d="M20.3133 32.4505L20.0081 31.6991L18.2577 31.7287L17.9788 32.4906L16.8804 32.5098L18.5489 28.3237L19.5967 28.3063L21.4047 32.4348L20.3133 32.4522V32.4505ZM19.0963 29.4657L18.5924 30.8395L19.6542 30.8221L19.0981 29.4657H19.0963Z" fill="white"/>
<path d="M25.7868 29.9088C25.8077 30.057 25.8164 30.1808 25.8182 30.2872C25.8391 31.5477 24.9552 32.4682 23.7016 32.4891C22.4411 32.5101 21.4456 31.5773 21.4247 30.3551C21.4037 29.1382 22.3626 28.1671 23.6092 28.1462C24.5333 28.1305 25.3544 28.5524 25.6595 29.3596L24.678 29.6612C24.4286 29.194 24.0294 29.0754 23.6249 29.0824C22.9484 29.0929 22.4428 29.6368 22.4533 30.3377C22.4655 31.0456 23.0007 31.5703 23.6964 31.5581C24.2421 31.5494 24.6344 31.2565 24.7826 30.7945L23.5098 30.8154L23.4959 29.9472L25.7851 29.9088H25.7868Z" fill="white"/>
<path d="M29.6694 32.2963L26.4301 32.3504L26.3604 28.1922L29.5805 28.1382L29.5945 29.0186L27.3977 29.0552L27.4099 29.8363L29.4271 29.8032L29.441 30.6348L27.4239 30.6679L27.4378 31.449L29.6537 31.4124L29.6677 32.2929L29.6694 32.2963Z" fill="white"/>
<path d="M35.1063 32.2028L34.1125 32.2203L34.0759 30.0043L32.9462 32.2395L32.4737 32.2482L31.2637 30.0392L31.3003 32.2673L30.3065 32.2848L30.2368 28.1266L31.2428 28.1092L32.6829 30.7226L34.0358 28.0621L35.0348 28.0447L35.1046 32.2028H35.1063Z" fill="white"/>
<path d="M39.0664 32.1356L35.8271 32.1896L35.7573 28.0315L38.9775 27.9774L38.9914 28.8579L36.7947 28.8945L36.8069 29.6756L38.8241 29.6424L38.838 30.4741L36.8208 30.5072L36.8348 31.2883L39.0507 31.2516L39.0647 32.1321L39.0664 32.1356Z" fill="white"/>
<path d="M43.6751 32.0608L42.8313 32.0747L40.6868 29.7018L40.7269 32.1096L39.7035 32.127L39.6338 27.9688L40.4846 27.9549L42.6291 30.4027L42.5872 27.92L43.6054 27.9026L43.6751 32.0608Z" fill="white"/>
<path d="M46.475 28.7487L46.5291 32.0125L45.5109 32.0299L45.4569 28.7662L44.1109 28.7888L44.0952 27.8944L47.807 27.8317L47.8227 28.7261L46.4768 28.7487H46.475Z" fill="white"/>
<path d="M6.60811 37.4185C6.41632 38.4611 5.57772 39.0696 4.51072 39.0696C3.27635 39.0696 2.30176 38.1194 2.30176 36.8972C2.30176 35.675 3.27635 34.7249 4.51072 34.7249C5.53414 34.7249 6.40413 35.3333 6.60288 36.3201L5.5969 36.5555C5.46614 35.954 5.04422 35.6611 4.51072 35.6611C3.85344 35.6611 3.32517 36.1894 3.32517 36.8955C3.32517 37.6016 3.85344 38.1368 4.51072 38.1368C5.03899 38.1368 5.4609 37.8387 5.60387 37.218L6.60985 37.4168L6.60811 37.4185Z" fill="white"/>
<path d="M11.4734 36.9042C11.4734 38.1141 10.4988 39.0696 9.25745 39.0696C8.0161 39.0696 7.0415 38.1141 7.0415 36.9042C7.0415 35.6942 8.0161 34.7249 9.25745 34.7249C10.4988 34.7249 11.4734 35.6872 11.4734 36.9042ZM10.45 36.9042C10.45 36.1911 9.93392 35.6628 9.2592 35.6628C8.58448 35.6628 8.06841 36.1911 8.06841 36.9042C8.06841 37.6173 8.58273 38.1333 9.2592 38.1333C9.93566 38.1333 10.45 37.612 10.45 36.9042Z" fill="white"/>
<path d="M16.0229 38.9727H15.179L13.0747 36.565V38.9727H12.0513V34.8146H12.9021L15.0064 37.2973V34.8146H16.0246V38.9727H16.0229Z" fill="white"/>
<path d="M20.0987 35.9274L19.0927 36.1314C19.0177 35.7408 18.6952 35.5473 18.3657 35.5473C18.0362 35.5473 17.8078 35.7338 17.8078 35.9692C17.8078 36.1366 17.8827 36.2604 18.1425 36.3162L19.0055 36.5079C19.7256 36.6701 20.1475 37.0606 20.1475 37.7179C20.1475 38.6053 19.3594 39.0639 18.4337 39.0639C17.5079 39.0639 16.7268 38.6175 16.6152 37.8033L17.67 37.5994C17.7764 38.0282 18.0728 38.2131 18.4895 38.2131C18.8748 38.2131 19.1032 38.0387 19.1032 37.7842C19.1032 37.5976 19.016 37.4808 18.7179 37.418L17.8496 37.2315C17.2533 37.0955 16.732 36.7852 16.732 36.0267C16.732 35.2195 17.4015 34.7174 18.3761 34.7174C19.2827 34.7174 19.94 35.1637 20.0952 35.9221L20.0987 35.9274Z" fill="white"/>
<path d="M24.4754 37.0985C24.4754 38.2893 23.7361 39.0651 22.6325 39.0651C21.5289 39.0651 20.7461 38.2893 20.7461 37.0985V34.8146H21.7695V37.0985C21.7695 37.7314 22.1112 38.1219 22.6325 38.1219C23.1224 38.1219 23.452 37.7314 23.452 37.0985V34.8146H24.4754V37.0985Z" fill="white"/>
<path d="M28.2551 38.9727H25.1831V34.8146H26.2065V38.0783H28.2551V38.9727Z" fill="white"/>
<path d="M30.3212 35.709V38.9727H29.303V35.709H27.957V34.8146H31.6689V35.709H30.3229H30.3212Z" fill="white"/>
<path d="M34.7895 38.9727L34.4984 38.2161H32.7479L32.4568 38.9727H31.3584L33.0966 34.8146H34.1462L35.8844 38.9727H34.793H34.7895ZM33.6232 35.9688L33.0949 37.3339H34.1567L33.6232 35.9688Z" fill="white"/>
<path d="M40.2133 38.9727H39.3695L37.2651 36.565V38.9727H36.2417V34.8146H37.0925L39.1969 37.2973V34.8146H40.215V38.9727H40.2133Z" fill="white"/>
<path d="M43.0687 35.709V38.9727H42.0505V35.709H40.7046V34.8146H44.4164V35.709H43.0705H43.0687Z" fill="white"/>
<path d="M48.1265 35.9274L47.1205 36.1314C47.0456 35.7408 46.723 35.5473 46.3935 35.5473C46.064 35.5473 45.8356 35.7338 45.8356 35.9692C45.8356 36.1366 45.9106 36.2604 46.1703 36.3162L47.0333 36.5079C47.7534 36.6701 48.1753 37.0606 48.1753 37.7179C48.1753 38.6053 47.3873 39.0639 46.4615 39.0639C45.5357 39.0639 44.7546 38.6175 44.6431 37.8033L45.6979 37.5994C45.8025 38.0282 46.1006 38.2131 46.5173 38.2131C46.9026 38.2131 47.131 38.0387 47.131 37.7842C47.131 37.5976 47.0438 37.4808 46.7457 37.418L45.8774 37.2315C45.2812 37.0955 44.7599 36.7852 44.7599 36.0267C44.7599 35.2195 45.4294 34.7174 46.404 34.7174C47.3106 34.7174 47.9678 35.1637 48.123 35.9221L48.1265 35.9274Z" fill="white"/>
<path d="M19.688 13.1254C19.6026 17.0238 16.4156 20.1568 12.4963 20.1568C8.57695 20.1568 5.38989 17.0238 5.30446 13.1254H0.637207C0.72438 19.6006 6.0001 24.8223 12.4945 24.8223C18.9889 24.8223 24.2664 19.6006 24.3536 13.1254H19.6863H19.688Z" fill="white"/>
<path d="M24.3187 12.0982L0.645996 12.0982C0.937155 8.13005 2.69107 0.695923 12.4859 0.695923V0.713357L22.4149 8.52756C23.515 9.39232 24.2089 10.6773 24.317 12.0738V12.0982H24.3187Z" fill="white"/>
<path d="M12.4878 0.705797L13.1154 6.15064C13.1695 6.61265 13.3874 7.02237 13.71 7.31876C14.111 7.68837 14.6671 7.84528 15.2093 7.77903C15.9242 7.69186 17.835 7.47916 19.3396 7.47916C21.2278 7.47916 21.7874 8.03706 21.7874 8.03706C21.7909 8.03706 21.7927 8.03358 21.7909 8.03183C21.4893 7.79123 12.7633 0.915012 12.4948 0.704053C12.493 0.70231 12.4895 0.704053 12.4895 0.70754L12.4878 0.705797Z" fill="#82BBFF"/>
</svg>
