<svg width="576" height="229" viewBox="0 0 576 229" fill="none" xmlns="http://www.w3.org/2000/svg">
<path d="M328.197 170H301.711V45.9027H336.717L356.906 92.0225L368.575 128.881L380.244 92.0225L400.433 45.9027H435.44V170H408.953V123.51L412.658 73.5005L397.84 114.804L382.467 148.515H354.684L339.31 114.804L324.308 73.5005L328.197 123.51V170ZM513.074 171.482C474.178 171.482 451.396 143.514 451.396 107.766C451.396 72.0187 474.178 44.0505 513.074 44.0505C539.931 44.0505 559.194 57.5716 568.64 79.4275L546.043 97.5791C542.339 82.0206 531.781 69.4256 512.889 69.4256C491.218 69.4256 479.92 85.1693 479.92 107.766C479.92 130.363 491.218 146.107 512.889 146.107C531.781 146.107 542.339 133.512 546.043 117.953L568.64 136.105C559.194 157.961 539.931 171.482 513.074 171.482Z" fill="#0073FF"/>
<path d="M277.844 140.176C267.747 160.388 246.783 174.28 222.553 174.28C188.762 174.28 161.312 147.244 160.849 113.727H185.133C185.251 119.197 186.567 124.93 189.297 130.68C192.481 137.369 197.897 142.803 204.619 145.962C221.129 153.726 237.421 149.97 248.017 140.176H277.844Z" fill="#0073FF"/>
<path d="M134.494 113.71C134.05 133.895 117.467 150.116 97.0747 150.116C76.6821 150.116 60.0994 133.895 59.6549 113.71H35.3706C35.8242 147.237 63.2744 174.273 97.0656 174.273C130.857 174.273 158.316 147.237 158.77 113.71H134.485H134.494Z" fill="#0073FF"/>
<path d="M277.843 83.4816H248.016C241.331 77.3071 232.386 73.5338 222.553 73.5338C202.677 73.5338 186.421 88.9519 185.197 108.423H160.894C161.166 101.156 162.708 93.6189 165.729 86.0182C171.471 71.5479 183.001 60.0385 197.525 54.2973C231.597 40.82 264.381 56.545 277.843 83.4906V83.4816Z" fill="#0073FF"/>
<path d="M158.59 108.403H35.418C36.9329 87.8573 46.0588 49.3662 97.0222 49.3662V49.4565L148.684 89.9155C154.408 94.3929 158.019 101.046 158.581 108.276V108.403H158.59Z" fill="#0073FF"/>
<path d="M97.0298 49.4134L100.295 77.6048C100.577 79.9969 101.711 82.1182 103.389 83.6528C105.475 85.5666 108.369 86.379 111.19 86.036C114.91 85.5846 124.852 84.4833 132.681 84.4833C142.505 84.4833 145.417 87.372 145.417 87.372C145.435 87.372 145.444 87.3539 145.435 87.3449C143.866 86.0992 98.4631 50.4967 97.0661 49.4044C97.057 49.3954 97.0389 49.4044 97.0389 49.4225L97.0298 49.4134Z" fill="white"/>
</svg>
