<svg width="37" height="37" viewBox="0 0 37 37" fill="none" xmlns="http://www.w3.org/2000/svg">
<g id="healthicons:market-stall-outline">
<g id="Group">
<path id="Vector" d="M16.0898 20.3953C15.8246 20.3953 15.5703 20.2899 15.3827 20.1024C15.1952 19.9148 15.0898 19.6605 15.0898 19.3953C15.0898 19.13 15.1952 18.8757 15.3827 18.6882C15.5703 18.5006 15.8246 18.3953 16.0898 18.3953C16.3551 18.3953 16.6094 18.5006 16.797 18.6882C16.9845 18.8757 17.0898 19.13 17.0898 19.3953C17.0898 19.6605 16.9845 19.9148 16.797 20.1024C16.6094 20.2899 16.3551 20.3953 16.0898 20.3953Z" fill="white"/>
<path id="Vector_2" fill-rule="evenodd" clip-rule="evenodd" d="M6.66159 14.8953C6.80709 14.8953 6.95034 14.8833 7.08984 14.8593V20.8953H5.21484C5.11539 20.8953 5.02 20.9348 4.94968 21.0051C4.87935 21.0754 4.83984 21.1708 4.83984 21.2703V22.0203C4.83984 22.1197 4.87935 22.2151 4.94968 22.2854C5.02 22.3558 5.11539 22.3953 5.21484 22.3953H29.9648C30.0643 22.3953 30.1597 22.3558 30.23 22.2854C30.3003 22.2151 30.3398 22.1197 30.3398 22.0203V21.2703C30.3398 21.1708 30.3003 21.0754 30.23 21.0051C30.1597 20.9348 30.0643 20.8953 29.9648 20.8953H28.0898V14.8593C28.2293 14.8833 28.3726 14.8953 28.5181 14.8953C29.9446 14.8953 31.0898 13.7313 31.0898 12.3085V10.516C31.0899 10.2782 31.0485 10.0421 30.9676 9.81851L29.3326 5.31101C29.2356 5.04273 29.0583 4.81087 28.8247 4.647C28.5912 4.48313 28.3129 4.39523 28.0276 4.39526H7.15134C6.86623 4.39559 6.58814 4.48375 6.35491 4.64774C6.12168 4.81172 5.94463 5.04358 5.84784 5.31176L4.21284 9.81851C4.13161 10.0421 4.08998 10.2781 4.08984 10.516V12.3085C4.08984 13.7313 5.23509 14.8953 6.66159 14.8953ZM5.62284 10.33L7.23159 5.89526H27.9473L29.5561 10.33C29.5786 10.39 29.5891 10.4523 29.5891 10.516V12.3085C29.5909 12.5947 29.479 12.8699 29.2781 13.0736C29.0771 13.2774 28.8035 13.3931 28.5173 13.3953C27.9323 13.3953 27.4463 12.9153 27.4463 12.3085C27.4463 12.1096 27.3673 11.9188 27.2267 11.7782C27.086 11.6375 26.8953 11.5585 26.6963 11.5585C26.4974 11.5585 26.3067 11.6375 26.166 11.7782C26.0254 11.9188 25.9463 12.1096 25.9463 12.3085C25.9481 12.5947 25.8363 12.8699 25.6353 13.0736C25.4344 13.2774 25.1608 13.3931 24.8746 13.3953C24.2896 13.3953 23.8036 12.9153 23.8036 12.3093C23.8036 12.1104 23.7246 11.9196 23.5839 11.7789C23.4433 11.6383 23.2525 11.5593 23.0536 11.5593C22.8547 11.5593 22.6639 11.6383 22.5233 11.7789C22.3826 11.9196 22.3036 12.1104 22.3036 12.3093C22.3036 12.9153 21.8176 13.3953 21.2318 13.3953C20.6461 13.3953 20.1608 12.9153 20.1608 12.3085C20.1608 12.1096 20.0818 11.9188 19.9412 11.7782C19.8005 11.6375 19.6098 11.5585 19.4108 11.5585C19.2119 11.5585 19.0212 11.6375 18.8805 11.7782C18.7399 11.9188 18.6608 12.1096 18.6608 12.3085C18.6628 12.5946 18.5511 12.8698 18.3503 13.0736C18.1495 13.2774 17.8759 13.3931 17.5898 13.3953C17.3038 13.3931 17.0303 13.2775 16.8294 13.0739C16.6284 12.8703 16.5165 12.5953 16.5181 12.3093C16.5181 12.1104 16.4391 11.9196 16.2984 11.7789C16.1578 11.6383 15.967 11.5593 15.7681 11.5593C15.5692 11.5593 15.3784 11.6383 15.2378 11.7789C15.0971 11.9196 15.0181 12.1104 15.0181 12.3093C15.0181 12.9153 14.5328 13.3953 13.9471 13.3953C13.3613 13.3953 12.8753 12.9153 12.8753 12.3085C12.8753 12.1096 12.7963 11.9188 12.6557 11.7782C12.515 11.6375 12.3243 11.5585 12.1253 11.5585C11.9264 11.5585 11.7357 11.6375 11.595 11.7782C11.4544 11.9188 11.3753 12.1096 11.3753 12.3085C11.3753 12.9145 10.8901 13.3953 10.3043 13.3953C9.71859 13.3953 9.23259 12.9153 9.23259 12.3085C9.23259 12.1096 9.15358 11.9188 9.01292 11.7782C8.87227 11.6375 8.68151 11.5585 8.48259 11.5585C8.28368 11.5585 8.09292 11.6375 7.95226 11.7782C7.81161 11.9188 7.73259 12.1096 7.73259 12.3085C7.73259 12.9145 7.24734 13.3953 6.66159 13.3953C6.07509 13.3953 5.58984 12.9153 5.58984 12.3085V10.516C5.58983 10.4526 5.601 10.3896 5.62284 10.33ZM26.5898 14.2368C26.1199 14.6615 25.5088 14.8963 24.8753 14.8953C24.5365 14.8957 24.201 14.8286 23.8884 14.6981C23.5758 14.5675 23.2922 14.376 23.0543 14.1348C22.8164 14.3761 22.5327 14.5676 22.2199 14.6982C21.9072 14.8288 21.5715 14.8958 21.2326 14.8953C20.8938 14.8957 20.5583 14.8286 20.2456 14.6981C19.933 14.5675 19.6495 14.376 19.4116 14.1348C19.1736 14.3761 18.89 14.5676 18.5772 14.6982C18.2644 14.8288 17.9288 14.8958 17.5898 14.8953C17.2509 14.8958 16.9153 14.8288 16.6025 14.6982C16.2897 14.5676 16.0061 14.3761 15.7681 14.1348C15.5302 14.376 15.2467 14.5675 14.934 14.6981C14.6214 14.8286 14.2859 14.8957 13.9471 14.8953C13.2338 14.8953 12.5896 14.6035 12.1253 14.1348C11.8875 14.376 11.6039 14.5675 11.2913 14.6981C10.9787 14.8286 10.6432 14.8957 10.3043 14.8953C9.64434 14.8953 9.04434 14.6455 8.58984 14.2368V20.8953H10.4648C10.3654 20.8953 10.27 20.8558 10.1997 20.7854C10.1294 20.7151 10.0898 20.6197 10.0898 20.5203V19.0203C10.0898 18.9208 10.1294 18.8254 10.1997 18.7551C10.27 18.6848 10.3654 18.6453 10.4648 18.6453H12.7148C12.8143 18.6453 12.9097 18.6848 12.98 18.7551C13.0503 18.8254 13.0898 18.9208 13.0898 19.0203V19.3953H14.2148C14.3143 19.3953 14.4097 19.4348 14.48 19.5051C14.5503 19.5754 14.5898 19.6708 14.5898 19.7703V20.5203C14.5898 20.6197 14.5503 20.7151 14.48 20.7854C14.4097 20.8558 14.3143 20.8953 14.2148 20.8953H26.5898V14.2368ZM5.58984 24.6453C5.58984 24.4464 5.66886 24.2556 5.80951 24.1149C5.95017 23.9743 6.14093 23.8953 6.33984 23.8953H28.8398C29.0388 23.8953 29.2295 23.9743 29.3702 24.1149C29.5108 24.2556 29.5898 24.4464 29.5898 24.6453V30.6453C29.5898 30.8442 29.5108 31.0349 29.3702 31.1756C29.2295 31.3162 29.0388 31.3953 28.8398 31.3953H6.33984C6.14093 31.3953 5.95017 31.3162 5.80951 31.1756C5.66886 31.0349 5.58984 30.8442 5.58984 30.6453V24.6453ZM7.08984 29.8953V25.3953H28.0898V29.8953H7.08984Z" fill="white"/>
</g>
</g>
</svg>
