<svg width="11" height="12" viewBox="0 0 11 12" fill="none" xmlns="http://www.w3.org/2000/svg">
<path d="M0.490266 5.99999C0.489128 6.14688 0.533779 6.29046 0.618013 6.4108C0.702247 6.53113 0.821878 6.62223 0.960279 6.67144L3.80005 7.70412L4.83228 10.5434C4.88316 10.6805 4.97477 10.7987 5.0948 10.8822C5.21482 10.9657 5.35753 11.0104 5.50373 11.0104C5.64993 11.0104 5.79263 10.9657 5.91266 10.8822C6.03269 10.7987 6.1243 10.6805 6.17518 10.5434L7.20786 7.70099L10.0472 6.67144C10.1842 6.62056 10.3025 6.52896 10.3859 6.40893C10.4694 6.2889 10.5142 6.1462 10.5142 5.99999C10.5142 5.85379 10.4694 5.71109 10.3859 5.59106C10.3025 5.47103 10.1842 5.37942 10.0472 5.32855L7.20473 4.29586L6.17518 1.45654C6.1243 1.31948 6.03269 1.20126 5.91266 1.11779C5.79263 1.03431 5.64993 0.989563 5.50373 0.989563C5.35753 0.989563 5.21482 1.03431 5.0948 1.11779C4.97477 1.20126 4.88316 1.31948 4.83228 1.45654L3.7996 4.299L0.960279 5.32855C0.821878 5.37775 0.702247 5.46886 0.618013 5.58919C0.533779 5.70952 0.489128 5.85311 0.490266 5.99999Z" fill="#699BF7"/>
</svg>
