<svg width="65" height="65" viewBox="0 0 65 65" fill="none" xmlns="http://www.w3.org/2000/svg">
<g id="Frame">
<path id="Vector" d="M59.1673 45.8391C59.1646 53.4949 53.7849 59.8935 46.5998 61.4642L44.8985 56.3602C48.1092 55.8362 50.838 53.8789 52.407 51.1666H45.834C42.8884 51.1666 40.5006 48.7789 40.5006 45.8333V35.1666C40.5006 32.221 42.8884 29.8333 45.834 29.8333H53.6689C52.3567 19.3098 43.3796 11.1666 32.5006 11.1666C21.6217 11.1666 12.6446 19.3098 11.3324 29.8333H19.1673C22.1128 29.8333 24.5007 32.221 24.5007 35.1666V45.8333C24.5007 48.7789 22.1128 51.1666 19.1673 51.1666H11.1673C8.2218 51.1666 5.83398 48.7789 5.83398 45.8333V32.4999C5.83398 17.7723 17.7731 5.83325 32.5006 5.83325C47.2281 5.83325 59.1673 17.7723 59.1673 32.4999V35.1631V35.1666V45.8333V45.8391ZM53.834 45.8333V35.1666H45.834V45.8333H53.834ZM11.1673 35.1666V45.8333H19.1673V35.1666H11.1673Z" fill="#0073FF"/>
</g>
</svg>
