<svg width="40" height="40" viewBox="0 0 40 40" fill="none" xmlns="http://www.w3.org/2000/svg">
<g id="vuesax/outline/text">
<g id="text">
<path id="Vector" d="M35.3263 13.6364C34.663 13.6364 34.113 13.0864 34.113 12.4232V9.47905C34.113 8.29816 33.1586 7.34375 31.9777 7.34375H8.4895C7.30862 7.34375 6.3542 8.29816 6.3542 9.47905V12.4393C6.3542 13.1026 5.80421 13.6526 5.14097 13.6526C4.47773 13.6526 3.92773 13.1026 3.92773 12.4232V9.47905C3.92773 6.95552 5.98215 4.91728 8.4895 4.91728H31.9777C34.5013 4.91728 36.5395 6.97169 36.5395 9.47905V12.4393C36.5395 13.1026 36.0057 13.6364 35.3263 13.6364Z" fill="#000B29"/>
<path id="Vector_2" d="M20.2347 35.5547C19.5715 35.5547 19.0215 35.0047 19.0215 34.3414V7.47231C19.0215 6.80908 19.5715 6.25908 20.2347 6.25908C20.898 6.25908 21.448 6.80908 21.448 7.47231V34.3414C21.448 35.0208 20.898 35.5547 20.2347 35.5547Z" fill="#000B29"/>
<path id="Vector_3" d="M26.6087 35.5566H13.8617C13.1984 35.5566 12.6484 35.0066 12.6484 34.3434C12.6484 33.6802 13.1984 33.1302 13.8617 33.1302H26.6087C27.272 33.1302 27.822 33.6802 27.822 34.3434C27.822 35.0066 27.272 35.5566 26.6087 35.5566Z" fill="#000B29"/>
</g>
</g>
</svg>
