<svg width="40" height="40" viewBox="0 0 40 40" fill="none" xmlns="http://www.w3.org/2000/svg">
<g id="vuesax/outline/trash">
<g id="trash">
<path id="Vector" d="M34.321 11.7138C34.2887 11.7138 34.2402 11.7138 34.1916 11.7138C25.6343 10.8565 17.0931 10.5329 8.63281 11.3903L5.33281 11.7138C4.6534 11.7785 4.05487 11.2932 3.99016 10.6138C3.92546 9.9344 4.41075 9.35204 5.07399 9.28734L8.37399 8.96381C16.9799 8.09028 25.699 8.42999 34.4343 9.28734C35.0975 9.35204 35.5828 9.95057 35.5181 10.6138C35.4696 11.2447 34.9358 11.7138 34.321 11.7138Z" fill="#FC6363"/>
<path id="Vector_2" d="M14.1031 10.0792C14.0384 10.0792 13.9737 10.0792 13.8928 10.0631C13.2458 9.94983 12.7928 9.31895 12.906 8.67189L13.2619 6.55277C13.5208 4.99983 13.8766 2.84836 17.6458 2.84836H21.884C25.6693 2.84836 26.0252 5.08071 26.2678 6.56895L26.6237 8.67189C26.7369 9.33512 26.284 9.96601 25.6369 10.0631C24.9737 10.1763 24.3428 9.72336 24.2458 9.0763L23.8899 6.97336C23.6634 5.56601 23.6149 5.29101 21.9002 5.29101H17.6619C15.9472 5.29101 15.9149 5.51748 15.6722 6.95718L15.3002 9.06012C15.2031 9.65865 14.6855 10.0792 14.1031 10.0792Z" fill="#FC6363"/>
<path id="Vector_3" d="M24.9567 37.6271H14.5714C8.92583 37.6271 8.69936 34.505 8.52142 31.9815L7.46995 15.6918C7.42142 15.0286 7.93907 14.4462 8.6023 14.3977C9.28171 14.3653 9.84789 14.8668 9.89642 15.53L10.9479 31.8197C11.1258 34.2786 11.1905 35.2006 14.5714 35.2006H24.9567C28.3538 35.2006 28.4185 34.2786 28.5802 31.8197L29.6317 15.53C29.6802 14.8668 30.2626 14.3653 30.9258 14.3977C31.5891 14.4462 32.1067 15.0124 32.0582 15.6918L31.0067 31.9815C30.8288 34.505 30.6023 37.6271 24.9567 37.6271Z" fill="#FC6363"/>
<path id="Vector_4" d="M22.4496 28.7307H17.0628C16.3996 28.7307 15.8496 28.1807 15.8496 27.5175C15.8496 26.8542 16.3996 26.3042 17.0628 26.3042H22.4496C23.1128 26.3042 23.6628 26.8542 23.6628 27.5175C23.6628 28.1807 23.1128 28.7307 22.4496 28.7307Z" fill="#FC6363"/>
<path id="Vector_5" d="M23.8073 22.2601H15.7191C15.0559 22.2601 14.5059 21.7101 14.5059 21.0469C14.5059 20.3836 15.0559 19.8336 15.7191 19.8336H23.8073C24.4706 19.8336 25.0206 20.3836 25.0206 21.0469C25.0206 21.7101 24.4706 22.2601 23.8073 22.2601Z" fill="#FC6363"/>
</g>
</g>
</svg>
