<svg width="53" height="55" viewBox="0 0 53 55" fill="none" xmlns="http://www.w3.org/2000/svg">
<g clip-path="url(#clip0_422_28760)">
<path d="M8.53701 54.4992C9.33311 51.2261 11.6858 49.5325 14.7568 48.8677C17.7596 48.2299 20.8342 47.9213 23.9268 47.9475C22.8827 48.2551 21.8294 48.5445 20.796 48.8762C19.7974 49.1951 18.813 49.5565 17.9234 50.2438C23.7035 52.1294 28.82 50.0307 34.0792 48.3779C32.7696 50.7406 30.7826 52.231 28.3134 53.1033C23.3571 54.8562 18.2153 54.7405 12.9992 54.1209C12.0165 54.0052 11.0067 54.207 9.99873 54.3792C9.66464 54.4371 8.76284 54.6163 8.53701 54.4992Z" fill="#00A745"/>
<path d="M4.40044 30.9471C4.97066 35.688 5.08394 40.5277 7.91848 44.6377C7.77495 42.7605 8.01455 40.8142 7.86623 38.8806C10.9021 43.6582 11.0104 50.488 7.62673 53.4716C5.82416 48.5854 3.90473 43.9913 2.46799 39.2673C1.6056 36.4234 2.63117 33.331 4.40044 30.9471Z" fill="#00A745"/>
<path d="M11.6961 15.9934H10.0466L10.021 15.2637H14.0714L14.097 15.9934H12.4489L12.6183 20.8246H11.8656L11.6961 15.9934Z" fill="#00662A"/>
<path d="M18.0388 20.8298L16.5148 18.5716H15.7465L15.8257 20.8298H15.073L14.8779 15.2689H16.7675C17.324 15.2689 17.7591 15.4345 18.073 15.7657C18.2273 15.9193 18.3508 16.1006 18.4366 16.2995C18.5223 16.4983 18.5685 16.7107 18.5726 16.9245C18.5902 17.2989 18.4758 17.6629 18.2493 17.9531C18.0228 18.2433 17.6986 18.4412 17.3332 18.5123L18.968 20.8298H18.0388ZM15.6557 15.9831L15.7217 17.8645H16.7103C17.463 17.8645 17.8171 17.4509 17.7984 16.916C17.7796 16.3811 17.4196 15.9831 16.794 15.9831H15.6557Z" fill="#00662A"/>
<path d="M19.8982 20.8298L19.7031 15.2689H23.1674L23.1925 15.9831H20.4781L20.5365 17.6471H23.0446L23.0697 18.3613H20.5615L20.623 20.1143H23.3346L23.3597 20.8298H19.8982Z" fill="#00662A"/>
<path d="M27.9401 20.8298L27.3245 19.3846H25.2061L24.6919 20.8298H23.8713L25.9274 15.2689H26.3342L28.7578 20.8298H27.9401ZM26.1724 16.5773L25.4397 18.6774H27.044L26.1724 16.5773Z" fill="#00662A"/>
<path d="M28.8825 19.7756L29.4242 19.3169C29.7459 19.9111 30.2462 20.2046 30.7871 20.2046C31.4198 20.2046 31.7995 19.8363 31.7827 19.3578C31.7722 19.0572 31.5669 18.8017 31.1751 18.5829C31.0758 18.5307 30.8764 18.4418 30.5936 18.312C30.3109 18.1821 30.1039 18.0791 29.9569 17.9958C29.3881 17.643 29.0943 17.1984 29.0758 16.6719C29.0633 16.4712 29.0945 16.2717 29.1673 16.0873C29.2401 15.9028 29.3527 15.7377 29.4973 15.6035C29.819 15.3021 30.2518 15.1448 30.7008 15.1659C31.0206 15.1563 31.3405 15.2273 31.6311 15.3723C31.9217 15.5173 32.1737 15.7317 32.3639 15.9959L31.8766 16.4771C31.7459 16.2942 31.5736 16.1444 31.3745 16.0408C31.1754 15.9372 30.9556 15.883 30.7344 15.8829C30.2302 15.8829 29.8637 16.1836 29.8795 16.6352C29.8898 16.9288 30.0562 17.1617 30.3791 17.3494C30.593 17.4711 30.8128 17.5819 31.0376 17.6811C31.382 17.8391 31.6208 17.9633 31.7561 18.0339C32.3027 18.3585 32.5889 18.7876 32.6079 19.3282C32.6227 19.5479 32.5863 19.7662 32.5017 19.9661C32.417 20.1659 32.2864 20.3418 32.1201 20.4799C31.7631 20.7825 31.3031 20.9406 30.8265 20.9245C30.4326 20.9364 30.0397 20.8344 29.6948 20.6306C29.35 20.4268 29.0679 20.1299 28.8825 19.7756Z" fill="#00662A"/>
<path d="M33.4062 15.2689H34.1604L34.2849 18.8186C34.3158 19.6993 34.792 20.1891 35.597 20.1891C36.402 20.1891 36.8376 19.6838 36.8072 18.8186L36.6827 15.2689H37.4425L37.572 18.9597C37.5934 19.5695 37.4224 20.0507 37.0662 20.405C36.7101 20.7593 36.226 20.9315 35.623 20.9315C35.02 20.9315 34.5252 20.7579 34.1443 20.405C33.7633 20.0522 33.5571 19.5695 33.5357 18.9597L33.4062 15.2689Z" fill="#00662A"/>
<path d="M41.9459 20.8298L40.4206 18.5716H39.6523L39.7315 20.8298H38.9788L38.7837 15.2689H40.6733C41.2316 15.2689 41.6668 15.4345 41.9787 15.7657C42.133 15.9193 42.2566 16.1006 42.3423 16.2995C42.4281 16.4983 42.4743 16.7107 42.4784 16.9245C42.496 17.2989 42.3816 17.6629 42.155 17.9531C41.9285 18.2433 41.6043 18.4412 41.239 18.5123L42.8738 20.8298H41.9459ZM39.5615 15.9831L39.6275 17.8645H40.6161C41.3688 17.8645 41.7229 17.4509 41.7041 16.916C41.6854 16.3811 41.3254 15.9831 40.7012 15.9831H39.5615Z" fill="#00662A"/>
<path d="M43.8088 20.8298L43.6138 15.2689H47.0781L47.1031 15.9831H44.3873L44.4457 17.6471H46.9525L46.9775 18.3613H44.4707L44.5322 20.1143H47.2424L47.2675 20.8298H43.8088Z" fill="#00662A"/>
<path d="M13.0311 43.2114C11.9636 42.2079 11.4086 40.9207 11.3535 39.3512C11.2985 37.7817 11.7761 36.4621 12.7871 35.4501C13.2721 34.9487 13.8569 34.5538 14.5064 34.289C15.1559 34.0242 15.8569 33.8949 16.5674 33.9089C18.4485 33.9089 20.1768 34.7853 21.1423 36.0993L19.8716 37.3583C18.9871 36.2984 17.9335 35.7747 16.7176 35.7747C16.2547 35.7656 15.7982 35.8511 15.3761 36.0261C14.9541 36.2011 14.5754 36.4619 14.2634 36.7923C13.944 37.1293 13.6984 37.5296 13.5413 37.9693C13.3842 38.4091 13.3188 38.8791 13.3491 39.3512C13.3843 40.3561 13.7383 41.186 14.4254 41.8536C14.7626 42.1791 15.1605 42.4347 15.5946 42.6046C16.0287 42.7745 16.4899 42.8551 16.9499 42.8416C18.2365 42.8416 19.266 42.318 20.0494 41.258L21.4351 42.4732C20.5053 43.7886 18.8395 44.6934 16.916 44.6934C15.4036 44.6962 14.0982 44.2008 13.0311 43.2114Z" fill="#00662A"/>
<path d="M29.1781 44.5408L28.2319 42.1654H24.5261L23.7395 44.5408H21.6945L25.3743 34.0964H26.86L31.2301 44.5408H29.1781ZM26.2066 36.8487L25.03 40.4266H27.6187L26.2066 36.8487Z" fill="#00662A"/>
<path d="M38.1042 44.5407L35.6324 40.624H34.3458L34.4832 44.5407H32.5583L32.1919 34.0963H36.0827C37.2125 34.0963 38.0891 34.4068 38.7187 35.0434C39.0274 35.3501 39.2738 35.7133 39.4435 36.1115C39.6131 36.5097 39.7026 36.9349 39.7067 37.3623C39.7544 38.7201 39.0612 39.9353 37.6201 40.4024L40.4034 44.5407H38.1042ZM34.1796 35.8874L34.2848 38.8852H36.0388C37.2124 38.8852 37.7554 38.2204 37.7257 37.3722C37.6959 36.5239 37.1087 35.8874 36.1455 35.8874H34.1796Z" fill="#00662A"/>
<path d="M41.9967 44.5408L41.6304 34.0964H48.5773L48.6405 35.8974H43.6326L43.7189 38.3574H48.3441L48.407 40.1527H43.7819L43.8721 42.7257H48.88L48.9435 44.5365L41.9967 44.5408Z" fill="#00662A"/>
<path d="M17.4506 23.1655H19.2639L15.9648 31.8612H14.7404L10.7974 23.1655H12.646L15.2758 29.3305L17.4506 23.1655Z" fill="#00662A"/>
<path d="M20.3467 23.1656H21.9595L22.2645 31.8613H20.6517L20.3467 23.1656Z" fill="#00662A"/>
<path d="M29.6849 23.1656H31.2737L31.5787 31.8613H30.5308L25.6622 26.33L25.8562 31.8613H24.2674L23.9624 23.1656H24.927L29.8805 28.7421L29.6849 23.1656Z" fill="#00662A"/>
<path d="M34.3196 30.756C33.4316 29.9205 32.9703 28.8492 32.9245 27.5437C32.8787 26.2381 33.2753 25.1443 34.117 24.2974C34.5206 23.8803 35.0071 23.5517 35.5475 23.3313C36.088 23.1109 36.6712 23.0031 37.2623 23.0145C38.8285 23.0145 40.2678 23.7442 41.0716 24.838L40.0122 25.8782C39.2751 24.9961 38.4012 24.5614 37.3872 24.5614C37.0021 24.554 36.6223 24.6253 36.2711 24.7709C35.92 24.9166 35.6048 25.1334 35.3451 25.4082C35.0782 25.6892 34.8731 26.0232 34.742 26.3902C34.611 26.7573 34.5567 27.1496 34.5825 27.5437C34.5845 27.9274 34.6649 28.3095 34.8188 28.6665C34.9727 29.0236 35.1968 29.348 35.4775 29.62C35.7582 29.892 36.0895 30.1059 36.4512 30.2486C36.8129 30.3913 37.1973 30.4597 37.581 30.4497C38.6529 30.4497 39.5091 30.015 40.1602 29.1329L41.3143 30.1449C40.5406 31.2387 39.1547 31.9924 37.5532 31.9924C36.2921 31.9924 35.2085 31.5803 34.3196 30.756Z" fill="#00662A"/>
<path d="M42.6263 31.8613L42.3213 23.1656H48.1017L48.1545 24.6716H43.9869L44.0589 26.7238H47.9087L47.9612 28.2185H44.1113L44.1865 30.361H48.3541L48.4067 31.8613H42.6263Z" fill="#00662A"/>
<path d="M6.11854 13.7655C11.1715 10.9031 15.5305 7.02039 19.2791 2.92451C21.4689 0.533601 22.6301 -0.22432 25.8268 2.41499C31.9541 7.47345 41.271 10.5785 41.271 10.5785L41.215 7.97308C41.2125 7.85269 41.2342 7.73386 41.2787 7.62357C41.3232 7.51328 41.3896 7.41374 41.474 7.3308C41.5584 7.24785 41.6592 7.18316 41.7704 7.14052C41.8815 7.09789 42.0009 7.07816 42.1215 7.08249L44.0476 7.15729C44.283 7.16611 44.5089 7.26636 44.6772 7.43668C44.8454 7.607 44.9426 7.83391 44.9481 8.06906L45.0122 10.8227C45.0176 11.052 45.0884 11.2773 45.2163 11.4721C45.3443 11.6668 45.524 11.823 45.7343 11.9222C47.027 12.539 49.4049 13.3731 51.3452 13.6907C35.5548 14.3794 22.5915 3.74877 22.5915 3.74877C22.5915 3.74877 17.363 11.4296 6.11854 13.7655Z" fill="#00A745"/>
</g>
<defs>
<clipPath id="clip0_422_28760">
<rect width="50.0154" height="53.8215" fill="white" transform="matrix(1 0 0.035057 0.999385 0.87793 0.759155)"/>
</clipPath>
</defs>
</svg>
