<svg width="36" height="22" viewBox="0 0 36 22" fill="none" xmlns="http://www.w3.org/2000/svg">
<path d="M34.7567 18.8957C33.7325 20.7296 32.4508 21.6008 30.255 21.696L30.2401 21.7128L18.916 21.7482C18.5708 21.7482 18.2742 21.5038 18.2108 21.1643L17.6268 18.0394C17.5429 17.5936 17.8899 17.1831 18.3451 17.1925C20.776 17.2466 27.4715 17.3921 28.4547 17.3921C31.6299 17.3921 31.6803 14.2318 28.9286 13.6982C28.9118 13.6945 28.895 13.6907 28.8801 13.6851C26.3988 12.924 23.1023 12.9557 20.8655 11.5397C18.513 10.1872 17.6679 6.70972 19.0279 4.41691C20.6976 1.68196 24.1471 0.971174 27.2719 0.961846C31.0385 0.857373 35.8051 2.69684 35.6857 6.83658C35.6745 7.22089 35.3518 7.52312 34.9675 7.52125L31.615 7.50446C31.2494 7.50259 30.9602 7.22463 30.908 6.8627C30.4304 3.56807 21.2554 4.27886 23.6322 7.69661C23.7366 7.84773 23.8766 7.97459 24.037 8.06413C26.8484 9.6275 29.7867 9.07342 32.6131 10.5435C35.5738 11.7711 36.1614 16.2858 34.7567 18.8957Z" fill="#E3A20B"/>
<path d="M12.1417 21.7061L7.00013 21.6912L0.438859 2.95325C0.272822 2.47939 0.608629 1.97755 1.11047 1.9533L4.58979 1.77794C4.92373 1.76115 5.22782 1.96636 5.33789 2.28164L12.1398 21.708L12.1417 21.7061Z" fill="#004799"/>
<path d="M22.0539 21.7324L18.4178 21.723C17.5149 21.7212 16.7127 21.1484 16.4142 20.2977L10.0488 2.12318C9.94248 1.81723 10.1589 1.49448 10.4816 1.47769L14.515 1.27434C14.7296 1.26315 14.9273 1.3956 14.9982 1.59895L22.0539 21.7342V21.7324Z" fill="#004799"/>
</svg>
